<svg width="121" height="21" viewBox="0 0 121 21" fill="none" xmlns="http://www.w3.org/2000/svg">
<path d="M10 1L13.09 7.26L20 8.27L15 13.14L16.18 20.02L10 16.77L3.82 20.02L5 13.14L0 8.27L6.91 7.26L10 1Z" fill="#D78A7C"/>
<path d="M35 1L38.09 7.26L45 8.27L40 13.14L41.18 20.02L35 16.77L28.82 20.02L30 13.14L25 8.27L31.91 7.26L35 1Z" fill="#D78A7C"/>
<path d="M60 1L63.09 7.26L70 8.27L65 13.14L66.18 20.02L60 16.77L53.82 20.02L55 13.14L50 8.27L56.91 7.26L60 1Z" fill="#D78A7C"/>
<path d="M85 1L88.09 7.26L95 8.27L90 13.14L91.18 20.02L85 16.77L78.82 20.02L80 13.14L75 8.27L81.91 7.26L85 1Z" fill="#D78A7C"/>
<path d="M110 1L113.09 7.26L120 8.27L115 13.14L116.18 20.02L110 16.77L103.82 20.02L105 13.14L100 8.27L106.91 7.26L110 1Z" stroke="#D78A7C" stroke-linecap="round" stroke-linejoin="round"/>
</svg>
