<svg width="33" height="21" viewBox="0 0 33 21" fill="none" xmlns="http://www.w3.org/2000/svg">
<g clip-path="url(#clip0_825_452)">
<path d="M7.59755 0.304535H25.6481C26.2739 0.304535 26.874 0.576752 27.3165 1.06129C27.759 1.54582 28.0076 2.20299 28.0076 2.88823M2.63758 17.1924H30.3485M28.0308 2.88823V11.0098H4.99241V2.88823M2.63758 17.1924C2.01261 17.1924 1.41317 16.9208 0.970823 16.4374C0.528471 15.954 0.279359 15.2981 0.278131 14.6138V7.20282C0.278131 6.86376 0.339188 6.52804 0.457819 6.21485C0.576449 5.90167 0.750336 5.61719 0.969493 5.37767C1.18865 5.13816 1.44877 4.94834 1.73501 4.81905C2.02125 4.68976 2.32795 4.62354 2.63758 4.62421C3.26211 4.62421 3.86107 4.89589 4.30269 5.37947C4.7443 5.86305 4.99241 6.51893 4.99241 7.20282M4.99241 2.90852C4.99241 2.22329 5.241 1.56611 5.68349 1.08158C6.12597 0.597045 6.72611 0.324859 7.35188 0.324859M28.0308 7.18253C28.0307 6.50562 28.2737 5.8558 28.7073 5.37337C29.1409 4.89094 29.7304 4.61457 30.3485 4.60391C30.6581 4.60325 30.9648 4.66944 31.2511 4.79873C31.5373 4.92801 31.7975 5.11787 32.0166 5.35738C32.2358 5.59689 32.4096 5.88138 32.5283 6.19456C32.6469 6.50774 32.708 6.84347 32.708 7.18253V14.5935C32.7098 14.934 32.6501 15.2717 32.5324 15.5869C32.4146 15.9021 32.2411 16.1887 32.0218 16.4303C31.8025 16.6718 31.5418 16.8634 31.2547 16.9942C30.9675 17.125 30.6595 17.1924 30.3485 17.1924M4.97852 17.1924V20.177M28.0308 17.1924V20.177" stroke="url(#paint0_linear_825_452)" stroke-width="0.5" stroke-miterlimit="10"/>
</g>
<defs>
<linearGradient id="paint0_linear_825_452" x1="6.01223" y1="22.3699" x2="28.8863" y2="1.48548" gradientUnits="userSpaceOnUse">
<stop offset="0.11" stop-color="#E8995F"/>
<stop offset="0.96" stop-color="#9D5B43"/>
</linearGradient>
<clipPath id="clip0_825_452">
<rect width="33" height="20.1517" fill="white"/>
</clipPath>
</defs>
</svg>
