<svg width="19" height="29" viewBox="0 0 19 29" fill="none" xmlns="http://www.w3.org/2000/svg">
<path d="M1.54151 14.5C0.734255 13.0612 0.309158 11.4289 0.308945 9.76721C0.308732 8.10555 0.733409 6.47313 1.5403 5.0341C2.34718 3.59508 3.5078 2.40019 4.90546 1.56961C6.30311 0.739024 7.88853 0.302013 9.50225 0.302552V0.302552C11.1156 0.30283 12.7004 0.740424 14.0974 1.57134C15.4945 2.40226 16.6545 3.59723 17.4608 5.03612C18.2672 6.47501 18.6915 8.10711 18.6911 9.76838C18.6907 11.4296 18.2656 13.0615 17.4585 14.5L9.50225 28.6974L1.54151 14.5ZM9.50225 4.37093C7.94363 4.37093 6.44886 5.00848 5.34675 6.14333C4.24465 7.27818 3.62549 8.81737 3.62549 10.4223C3.62549 12.0272 4.24465 13.5664 5.34675 14.7012C6.44886 15.8361 7.94363 16.4737 9.50225 16.4737C11.0609 16.4737 12.5556 15.8361 13.6577 14.7012C14.7598 13.5664 15.379 12.0272 15.379 10.4223C15.379 8.81737 14.7598 7.27818 13.6577 6.14333C12.5556 5.00848 11.0609 4.37093 9.50225 4.37093V4.37093Z" stroke="url(#paint0_linear_825_448)" stroke-width="0.5" stroke-linejoin="round"/>
<defs>
<linearGradient id="paint0_linear_825_448" x1="4.34925e-06" y1="14.5" x2="19" y2="14.5" gradientUnits="userSpaceOnUse">
<stop offset="0.11" stop-color="#FFA95F"/>
<stop offset="0.96" stop-color="#9D5B43"/>
</linearGradient>
</defs>
</svg>
