<svg width="32" height="32" viewBox="0 0 32 32" fill="none" xmlns="http://www.w3.org/2000/svg">
<path d="M15.9967 31C7.72922 31 1 24.2708 1 15.9967C1 7.72922 7.72922 1 15.9967 1C24.2642 1 30.9935 7.72922 30.9935 15.9967C31 24.2708 24.2708 31 15.9967 31ZM27.5568 15.9967C27.5568 9.62099 22.3725 4.43661 15.9967 4.43661C9.62099 4.43661 4.43661 9.62099 4.43661 15.9967C4.43661 22.3725 9.62099 27.5568 15.9967 27.5568C22.3725 27.5568 27.5568 22.3725 27.5568 15.9967ZM24.1137 15.9967C24.1137 11.5193 20.4741 7.87977 15.9967 7.87977C11.5193 7.87977 7.87977 11.5193 7.87977 15.9967C7.87977 20.4741 11.5193 24.1137 15.9967 24.1137C20.4741 24.1137 24.1137 20.4741 24.1137 15.9967ZM20.6771 15.9967C20.6771 13.4176 18.5824 11.3229 16.0033 11.3229C13.4242 11.3229 11.3295 13.4176 11.3295 15.9967C11.3295 18.5758 13.4242 20.6705 16.0033 20.6705C18.5758 20.6705 20.6771 18.5758 20.6771 15.9967ZM15.9967 14.7661C15.3159 14.7661 14.7661 15.3225 14.7661 15.9967C14.7661 16.6775 15.3159 17.2274 15.9967 17.2274C16.6775 17.2274 17.2274 16.6775 17.2274 15.9967C17.2339 15.3159 16.684 14.7661 15.9967 14.7661Z" stroke="#A7884C" stroke-width="1.2" stroke-miterlimit="10"/>
</svg>
