<svg width="21" height="31" viewBox="0 0 21 31" fill="none" xmlns="http://www.w3.org/2000/svg">
<g clip-path="url(#clip0_825_338)">
<path d="M4.40687 2.56498C4.94497 2.72949 5.33463 2.41669 5.73821 2.02511C8.57022 -0.69049 12.5132 -0.676597 15.3313 2.07376C15.5516 2.29639 15.8143 2.47262 16.1039 2.59202C16.3936 2.71141 16.7042 2.77155 17.0175 2.76888C19.0888 2.84766 20.5941 4.21703 20.949 6.263C21.2551 8.02629 20.1325 9.97032 18.2793 10.5959C17.4397 10.8832 17.1613 11.3096 17.2402 12.1321C17.2704 12.6615 17.2704 13.1922 17.2402 13.7216C17.2286 14.2476 17.3028 14.7018 17.8873 14.9149C18.1494 15.0099 18.4695 15.1628 18.2654 15.5289C18.0775 15.858 17.7621 15.7004 17.5069 15.5985C15.8623 14.9502 14.1343 14.5367 12.3741 14.3704C9.46088 14.0622 6.67062 14.5187 3.92675 15.4363C3.60667 15.5429 3.23092 15.8556 2.95491 15.5011C2.6789 15.1466 3.17294 14.996 3.36777 14.7875C3.56625 14.535 3.65634 14.2142 3.61827 13.8954C3.61827 13.2235 3.58348 12.5515 3.63218 11.8842C3.69017 11.1033 3.41416 10.6979 2.64643 10.3967C0.661011 9.6135 -0.340977 7.72275 0.0950732 5.82507C0.565915 3.81154 2.2243 2.53254 4.40687 2.56498ZM4.46949 12.4473V12.9756C4.46949 14.4168 4.46949 14.4006 5.89129 14.0762C8.99617 13.3319 12.2347 13.3446 15.3336 14.1132C16.5096 14.4098 16.5513 14.3751 16.5583 13.2026C16.5699 11.8263 16.5583 10.4499 16.5722 9.0736C16.5722 8.84189 16.5537 8.51288 16.8714 8.47581C17.1892 8.43874 17.1938 8.75849 17.2425 8.99483C17.4489 10.0306 17.827 10.1858 18.6991 9.59494C20.3227 8.49202 20.7054 6.24447 19.4993 4.76155C19.2077 4.40582 18.8462 4.11354 18.4372 3.90272C18.0282 3.69189 17.5803 3.56702 17.1211 3.53575C16.6619 3.50449 16.2012 3.56752 15.7673 3.72096C15.3334 3.8744 14.9356 4.11499 14.5984 4.4279C14.3409 4.65961 14.0928 5.28985 13.7147 4.91448C13.2647 4.46729 13.9118 4.15217 14.16 3.81388C14.2002 3.75459 14.2544 3.70606 14.3177 3.67254C15.4774 3.12339 14.9208 2.62522 14.2853 2.1062C11.5437 -0.122815 6.45955 0.349856 4.79189 4.84728C4.68056 5.1485 4.66664 5.69301 4.18652 5.5424C3.7064 5.39179 4.04504 4.94924 4.08911 4.63181C4.10738 4.52716 4.14264 4.42619 4.19349 4.3329C4.65737 3.43156 4.19348 3.29484 3.44431 3.42692C3.16631 3.47446 2.89624 3.56022 2.6418 3.68179C1.88707 4.05423 1.3015 4.69835 1.00286 5.48458C0.704231 6.27082 0.714682 7.14086 1.03212 7.91971C1.69547 9.54165 3.54404 10.3156 5.26737 9.73167C5.55962 9.63435 5.9632 9.20106 6.16267 9.73167C6.34126 10.1951 5.81707 10.3411 5.52251 10.3943C4.219 10.6168 4.50892 11.5992 4.46949 12.4473Z" fill="#D78A7C"/>
<path d="M14.0672 30.9977C13.5239 30.9909 12.9897 30.8579 12.5066 30.6094C12.0236 30.3609 11.605 30.0036 11.2839 29.5657C10.7273 28.859 10.4304 28.6528 9.75543 29.5101C8.9993 30.4717 7.87902 30.9583 6.59407 30.9838C5.74516 31 5.44827 30.664 5.60831 29.8252C5.8424 28.6737 6.46757 27.6382 7.37803 26.8942C7.96716 26.3798 7.93701 26.1272 7.16696 25.87C6.4736 25.6118 5.80062 25.302 5.15371 24.9432C4.85682 24.7903 4.3883 24.6118 4.59241 24.1925C4.84522 23.6711 5.20706 24.1322 5.46915 24.2713C6.72976 24.9857 8.10979 25.4654 9.54204 25.687C11.5545 25.9794 13.606 25.5589 15.3406 24.4983C15.554 24.3732 15.7627 24.2411 15.9807 24.1276C16.1988 24.0141 16.4075 23.9723 16.5467 24.1901C16.6858 24.4079 16.5212 24.591 16.3565 24.7277C15.7738 25.1884 15.1196 25.5508 14.4198 25.8005C13.6544 26.0925 13.4503 26.3427 14.153 26.9845C14.931 27.6711 15.4199 28.6264 15.5215 29.6584C15.6143 30.7822 15.3661 31.0347 14.0672 30.9977ZM10.6646 26.9034C10.878 27.3668 11.0705 27.8094 11.277 28.2404C11.6684 29.0821 12.3708 29.7397 13.2369 30.0755C13.6845 30.2539 14.2412 30.5389 14.6285 30.1334C15.0159 29.7279 14.6285 29.2066 14.4801 28.7432C14.4242 28.6142 14.3574 28.4902 14.2806 28.3724C13.4085 26.6601 11.9241 26.3798 10.1776 26.4933C8.69778 26.5883 6.81441 28.0133 6.49201 29.4545C6.35981 30.0384 6.53144 30.247 7.13217 30.1496C8.37306 29.9179 9.21965 29.2228 9.82965 28.1431C10.0546 27.7306 10.1265 27.2139 10.6646 26.9034Z" fill="#D78A7C"/>
<path d="M10.514 23.5854C8.94432 23.5883 7.42361 23.0399 6.21778 22.036C5.01195 21.0322 4.19774 19.6368 3.91755 18.094C3.87155 17.8169 3.85677 17.5355 3.87348 17.2552C3.88507 17.0374 3.98713 16.8358 4.25618 16.8381C4.46493 16.8381 4.55539 17.0049 4.59945 17.1787C4.63627 17.3507 4.6626 17.5248 4.67831 17.7C5.07261 20.6079 7.38507 22.7165 10.3655 22.8856C13.0375 23.0362 15.6236 21.0876 16.3218 18.3929C16.3556 18.184 16.4052 17.9779 16.4702 17.7765C16.6071 17.466 16.4192 16.8126 16.9782 16.9331C17.4189 17.0304 17.224 17.6074 17.1846 17.9665C16.8181 21.1594 13.9212 23.59 10.514 23.5854Z" fill="#D78A7C"/>
</g>
<defs>
<clipPath id="clip0_825_338">
<rect width="21" height="31" fill="white"/>
</clipPath>
</defs>
</svg>
