<svg width="30" height="17" viewBox="0 0 30 17" fill="none" xmlns="http://www.w3.org/2000/svg">
<g clip-path="url(#clip0_825_343)">
<path d="M15.037 0.0145874C19.5547 0.0145874 24.0724 0.0145874 28.5901 0.0145874C29.6383 0.0145874 30.0074 0.32062 30.0001 1.36991C29.9558 5.53065 30.0001 9.6841 30.0001 13.8448C30.0001 15.907 28.9001 16.9927 26.7889 17C19.8499 17 12.9061 17 5.95723 17C4.00842 17 3.17423 16.2713 2.79037 14.3768C2.10386 11.0176 1.48378 7.63651 0.575808 4.32104C0.251005 3.17702 0.435572 1.95283 0.0886232 0.801525C-0.0516327 0.313312 0.265769 0.0728494 0.760355 0.0728494H1.75694L15.037 0.0145874ZM16.2476 16.0819H26.1689C28.2432 16.0819 29.0404 15.3095 29.0404 13.2619C29.0404 9.68411 29.0404 6.10628 29.0404 2.52848C29.0404 0.918109 29.0404 0.939991 27.4016 0.910844C18.9567 0.779682 10.5045 1.19504 2.06696 0.69225C0.730842 0.612096 0.671789 0.692249 0.915391 2.01115C1.65358 6.02615 2.65011 10.0266 3.66143 13.9614C4.07482 15.5863 4.60634 16.0746 6.31894 16.0819H16.2476Z" fill="#D78A7C"/>
<path d="M23.9026 6.35405C22.7658 6.35405 21.6364 6.35405 20.4995 6.35405C20.1821 6.35405 19.7614 6.35405 19.7614 5.9387C19.7614 5.52336 20.1452 5.47238 20.4995 5.47238C22.8027 5.47238 25.1059 5.47238 27.409 5.47238C27.7264 5.47238 28.1472 5.47239 28.1472 5.93145C28.1472 6.39052 27.7043 6.35405 27.409 6.35405C26.2796 6.35405 25.1428 6.35405 24.0133 6.35405H23.9026Z" fill="#D78A7C"/>
</g>
<defs>
<clipPath id="clip0_825_343">
<rect width="30" height="17" fill="white"/>
</clipPath>
</defs>
</svg>
