<svg width="32" height="30" viewBox="0 0 32 30" fill="none" xmlns="http://www.w3.org/2000/svg">
<path fill-rule="evenodd" clip-rule="evenodd" d="M1.73077 15H30.5769V30H1.73077V15ZM2.15386 15.4152V29.5848H30.1539V15.4152H2.15386Z" fill="#A7884C"/>
<path fill-rule="evenodd" clip-rule="evenodd" d="M19.6154 12.1154H21.9231V12.5234H20.0404V15H19.6154V12.1154Z" fill="#A7884C"/>
<path fill-rule="evenodd" clip-rule="evenodd" d="M26.1135 12.5234H24.2308V12.1154H26.5385V15H26.1135V12.5234Z" fill="#A7884C"/>
<path fill-rule="evenodd" clip-rule="evenodd" d="M10.9615 5.19233V2.30771H11.5385V5.19233H10.9615Z" fill="#A7884C"/>
<path fill-rule="evenodd" clip-rule="evenodd" d="M4.61536 8.65387V2.30771H5.19228V8.65387H4.61536Z" fill="#A7884C"/>
<path fill-rule="evenodd" clip-rule="evenodd" d="M4.90381 9.0472C4.04208 9.0472 3.3435 9.64598 3.3435 10.3846C3.3435 11.1232 4.04208 11.722 4.90381 11.722C5.76555 11.722 6.46413 11.1232 6.46413 10.3846C6.46413 9.64598 5.76555 9.0472 4.90381 9.0472ZM2.88458 10.3846C2.88458 9.42873 3.78862 8.65384 4.90381 8.65384C6.01901 8.65384 6.92305 9.42873 6.92305 10.3846C6.92305 11.3405 6.01901 12.1154 4.90381 12.1154C3.78862 12.1154 2.88458 11.3405 2.88458 10.3846Z" fill="#A7884C"/>
<path fill-rule="evenodd" clip-rule="evenodd" d="M11.5385 5.58893C9.86569 5.58893 8.50963 6.83198 8.50963 8.36537C8.50963 9.89876 9.86569 11.1418 11.5385 11.1418C13.2113 11.1418 14.5673 9.89876 14.5673 8.36537C14.5673 6.83198 13.2113 5.58893 11.5385 5.58893ZM8.07693 8.36537C8.07693 6.61293 9.62672 5.19229 11.5385 5.19229C13.4502 5.19229 15 6.61293 15 8.36537C15 10.1178 13.4502 11.5384 11.5385 11.5384C9.62672 11.5384 8.07693 10.1178 8.07693 8.36537Z" fill="#A7884C"/>
<path fill-rule="evenodd" clip-rule="evenodd" d="M15 2.3077H2.88458V1.73077H15V2.3077Z" fill="#A7884C"/>
<path fill-rule="evenodd" clip-rule="evenodd" d="M20.8671 0H25.8342V2.46272L28.2692 3.56624V5.19231H18.4615V3.56692L20.8671 2.46339V0ZM21.2891 0.411761V2.7248L18.8836 3.82832V4.78055H27.8472V3.829L25.4122 2.72548V0.411761H21.2891Z" fill="#A7884C"/>
</svg>
