<svg width="35" height="19" viewBox="0 0 35 19" fill="none" xmlns="http://www.w3.org/2000/svg">
<path fill-rule="evenodd" clip-rule="evenodd" d="M7.62275 0.69856C6.48892 0.69856 5.56467 1.59002 5.56467 2.68364V9.66342H28.4631V2.68364C28.4631 1.58477 27.5394 0.69856 26.405 0.69856H7.87624V0H26.405C27.9383 0 29.1874 1.19783 29.1874 2.68364V4.76263C29.6967 4.22249 30.4308 3.88283 31.2454 3.88283C32.7787 3.88283 34.0278 5.08066 34.0278 6.56647V13.2668C34.0278 14.7457 32.7859 15.9505 31.2454 15.9505V15.9446H29.1874V18.2906H28.4631V15.9446H5.56467V18.2906H4.84042V15.9446H2.78234C1.2491 15.9446 0 14.7468 0 13.261V6.56647C0 5.08762 1.24188 3.88283 2.78234 3.88283C3.59673 3.88283 4.33096 4.22077 4.84042 4.76032V2.68364C4.84042 1.20422 6.08893 0 7.62275 0V0.69856ZM4.84042 6.56647C4.84042 5.4676 3.91676 4.58139 2.78234 4.58139C1.64305 4.58139 0.724252 5.47228 0.724252 6.56647V13.261C0.724252 14.3599 1.64791 15.2461 2.78234 15.2461H31.2454V15.2519C32.3847 15.2519 33.3035 14.361 33.3035 13.2668V6.56647C33.3035 5.4676 32.3799 4.58139 31.2454 4.58139C30.1116 4.58139 29.1874 5.47285 29.1874 6.56647V10.362H4.84042V6.56647Z" fill="#D78A7C"/>
</svg>
