<svg width="32" height="32" viewBox="0 0 32 32" fill="none" xmlns="http://www.w3.org/2000/svg">
<path d="M27.805 27.2995L26.3816 25.4017C26.0682 24.9837 25.8955 24.4658 25.8955 23.9434V17.4086C25.8955 12.1213 21.7273 7.78916 16.5042 7.52565V6.60533C18.0974 6.3616 19.3216 4.98199 19.3216 3.32173C19.3217 1.49017 17.8315 0 15.9999 0C14.1683 0 12.6781 1.49017 12.6781 3.3218C12.6781 4.98199 13.9023 6.3616 15.4955 6.6054V7.52578C10.2724 7.78929 6.10417 12.1214 6.10417 17.4087V23.9435C6.10417 24.466 5.93159 24.9839 5.61811 25.4017L4.19472 27.2995C3.9255 27.6585 3.88293 28.1307 4.08362 28.5321C4.28424 28.9334 4.68764 29.1827 5.1363 29.1827H13.6172V29.6174C13.6172 30.9312 14.6861 32 15.9999 32C17.3137 32 18.3826 30.9311 18.3826 29.6174V29.1827H26.8635C27.3121 29.1827 27.7155 28.9334 27.9162 28.5321C28.1168 28.1307 28.0742 27.6584 27.805 27.2995ZM13.6869 3.3218C13.6869 2.04644 14.7245 1.00883 15.9999 1.00883C17.2752 1.00883 18.3129 2.04644 18.3129 3.3218C18.3129 4.42391 17.5378 5.34786 16.5043 5.57868V5.20003C16.5043 4.92146 16.2785 4.69562 15.9999 4.69562C15.7212 4.69562 15.4955 4.92146 15.4955 5.20003V5.57868C14.462 5.34779 13.6869 4.42391 13.6869 3.3218ZM17.3738 29.6174C17.3738 30.3749 16.7574 30.9912 15.9999 30.9912C15.2423 30.9912 14.6261 30.3748 14.6261 29.6174V29.1827H17.3737V29.6174H17.3738ZM27.0139 28.0808C26.9964 28.1156 26.9539 28.1738 26.8635 28.1738H5.13636C5.04591 28.1738 5.00333 28.1155 4.98598 28.0808C4.96863 28.0461 4.94765 27.9771 5.00185 27.9048L6.42524 26.007C6.75943 25.5614 6.98037 25.0355 7.06901 24.487H22.5737C22.8524 24.487 23.0782 24.2612 23.0782 23.9826C23.0782 23.704 22.8524 23.4782 22.5737 23.4782H7.11299V17.4087C7.11299 12.5084 11.0996 8.52183 15.9999 8.52183C20.9002 8.52183 24.8868 12.5084 24.8868 17.4087V23.9434C24.8868 24.6826 25.131 25.4155 25.5746 26.007L26.998 27.9048C27.0522 27.9771 27.0311 28.0461 27.0139 28.0808Z" fill="#C77D71"/>
</svg>
