<svg width="26" height="27" viewBox="0 0 26 27" fill="none" xmlns="http://www.w3.org/2000/svg">
<path d="M4.96729 10.8429V6.15873C4.94077 4.81815 5.44705 3.52184 6.37497 2.55457C7.30288 1.5873 8.57655 1.02817 9.91615 1H16.5353C17.8749 1.02817 19.1485 1.5873 20.0765 2.55457C21.0044 3.52184 21.5107 4.81815 21.4841 6.15873V10.8429M4.95491 11.8829V15.3743M21.4841 11.8829V15.3743M3.57341 19.8273V16.8229C3.56958 16.6364 3.60249 16.451 3.67027 16.2773C3.73805 16.1036 3.83933 15.945 3.9684 15.8104C4.09746 15.6759 4.2517 15.5682 4.42238 15.4933C4.59307 15.4185 4.77685 15.378 4.96316 15.3743H21.4841C21.6708 15.3775 21.855 15.4176 22.0261 15.4922C22.1973 15.5668 22.3521 15.6744 22.4816 15.809C22.6111 15.9436 22.7127 16.1024 22.7808 16.2764C22.8488 16.4504 22.8818 16.6361 22.878 16.8229V19.8273M22.878 19.2702V21.0118C22.8791 21.0741 22.8679 21.136 22.8451 21.194C22.8223 21.252 22.7883 21.3049 22.745 21.3498C22.7017 21.3946 22.65 21.4305 22.5929 21.4553C22.5357 21.4802 22.4743 21.4935 22.412 21.4946H4.05176C3.98967 21.4935 3.92844 21.4802 3.87154 21.4553C3.81463 21.4304 3.76315 21.3944 3.72021 21.3495C3.67726 21.3046 3.64361 21.2517 3.62123 21.1937C3.59886 21.1357 3.58818 21.0739 3.58982 21.0118V19.2702M3.58982 19.5879H22.8945M6.9386 21.4822V26.2902C6.9386 26.335 6.92077 26.3781 6.88906 26.4098C6.85735 26.4415 6.81439 26.4594 6.76955 26.4594H5.53233C5.48749 26.4594 5.44443 26.4415 5.41272 26.4098C5.38101 26.3781 5.36318 26.335 5.36318 26.2902V21.4822M21.2243 21.4822V26.2902C21.2248 26.3122 21.221 26.3341 21.213 26.3546C21.2049 26.3751 21.1928 26.3938 21.1775 26.4096C21.1621 26.4253 21.1438 26.4379 21.1235 26.4464C21.1032 26.455 21.0814 26.4594 21.0593 26.4594H19.8221C19.7773 26.4594 19.7343 26.4415 19.7026 26.4098C19.6709 26.3781 19.6531 26.335 19.6531 26.2902V21.4822M5.83751 11.8375C5.83751 11.8622 5.83747 11.8829 5.80036 11.8829H1.04119C1.02988 11.8818 1.01942 11.8766 1.01179 11.8682C1.00415 11.8598 0.999958 11.8488 1 11.8375V10.8924C0.99984 10.8806 1.00382 10.8691 1.01138 10.86C1.01895 10.8509 1.02954 10.8448 1.04119 10.8429H5.80036C5.8251 10.8429 5.83751 10.8676 5.83751 10.8924V11.8375ZM20.6346 11.8375C20.634 11.8432 20.6347 11.849 20.6365 11.8545C20.6383 11.86 20.6412 11.8651 20.6451 11.8694C20.649 11.8736 20.6537 11.8771 20.659 11.8794C20.6643 11.8817 20.6701 11.8829 20.6758 11.8829H25.4309C25.4422 11.8818 25.4526 11.8766 25.4603 11.8682C25.4679 11.8598 25.4721 11.8488 25.4721 11.8375V10.8924C25.4722 10.8806 25.4681 10.8691 25.4606 10.86C25.453 10.8509 25.4425 10.8448 25.4309 10.8429H20.6758C20.6699 10.8434 20.664 10.8451 20.6587 10.8478C20.6534 10.8506 20.6488 10.8544 20.6449 10.859C20.6411 10.8636 20.6381 10.8689 20.6364 10.8747C20.6346 10.8804 20.634 10.8864 20.6346 10.8924V11.8375Z" stroke="#C97D71" stroke-width="0.5" stroke-miterlimit="10"/>
</svg>
