<svg width="31" height="17" viewBox="0 0 31 17" fill="none" xmlns="http://www.w3.org/2000/svg">
<path fill-rule="evenodd" clip-rule="evenodd" d="M10.1507 0.437323L10.4003 0L10.65 0.437323L10.6507 0.438582L10.6541 0.444422C10.6573 0.449873 10.6623 0.458398 10.6692 0.469794C10.6829 0.492589 10.7039 0.526847 10.732 0.570932C10.7882 0.659136 10.8727 0.786467 10.984 0.939873C11.207 1.24716 11.5358 1.65653 11.9588 2.06506C12.8097 2.88679 14.0104 3.67618 15.4758 3.67618C16.9413 3.67618 18.142 2.88679 18.9928 2.06506C19.4158 1.65653 19.7447 1.24716 19.9677 0.939873C20.079 0.786467 20.1635 0.659136 20.2197 0.570932C20.2478 0.526847 20.2688 0.492589 20.2825 0.469794C20.2894 0.458398 20.2944 0.449872 20.2976 0.444422L20.301 0.438581L20.3016 0.437512L20.3844 0.292505H20.7617L20.8443 0.43759L20.845 0.438846L20.8484 0.444684C20.8516 0.450133 20.8566 0.458656 20.8634 0.47005C20.8771 0.492841 20.8981 0.527096 20.9261 0.571177C20.9821 0.659372 21.0664 0.786694 21.1775 0.940089C21.4001 1.24735 21.7283 1.6567 22.1507 2.0652C23.0003 2.88685 24.1998 3.67618 25.6652 3.67618C27.1307 3.67618 28.3314 2.88679 29.1822 2.06506C29.6052 1.65653 29.9341 1.24716 30.157 0.939873C30.2684 0.786467 30.3528 0.659136 30.4091 0.570932C30.4371 0.526848 30.4581 0.492589 30.4719 0.469794C30.4787 0.458398 30.4837 0.449873 30.4869 0.444423L30.4903 0.438582L30.491 0.437441C30.491 0.4375 30.491 0.437512 30.7407 0.580069C30.9904 0.722627 30.9904 0.722725 30.9903 0.722836L30.9897 0.72393L30.9882 0.726461L30.9832 0.735129C30.9789 0.742483 30.9727 0.752958 30.9646 0.766345C30.9485 0.793115 30.9249 0.831553 30.8941 0.87999C30.8324 0.976831 30.7414 1.11385 30.6225 1.27766C30.3851 1.60482 30.0346 2.04136 29.5817 2.47875C28.6808 3.34886 27.3438 4.25131 25.6652 4.25131C23.9866 4.25131 22.6507 3.3488 21.7509 2.47861C21.2986 2.0412 20.9487 1.60462 20.7118 1.27745C20.6601 1.20609 20.6137 1.13981 20.5727 1.07973C20.5316 1.13987 20.485 1.20622 20.4332 1.27766C20.1958 1.60482 19.8452 2.04136 19.3924 2.47875C18.4915 3.34886 17.1544 4.25131 15.4758 4.25131C13.7973 4.25131 12.4602 3.34886 11.5593 2.47875C11.1064 2.04136 10.7559 1.60482 10.5185 1.27766C10.4754 1.2183 10.436 1.16246 10.4003 1.11077C10.3646 1.16246 10.3252 1.2183 10.2821 1.27766C10.0447 1.60482 9.69423 2.04136 9.24135 2.47875C8.34044 3.34886 7.00337 4.25131 5.32482 4.25131C3.64859 4.25131 2.31153 3.34878 1.41014 2.47882C0.957001 2.04147 0.606064 1.60497 0.36829 1.27784C0.249232 1.11405 0.15809 0.977044 0.0962653 0.880217C0.0653422 0.831787 0.041721 0.793356 0.025578 0.766592C0.0175055 0.753209 0.0112999 0.742737 0.00698329 0.735386L0.00192665 0.726723L0.000465282 0.724195L2.15469e-06 0.723389C-6.14639e-05 0.723278 -0.000282241 0.722893 0.249306 0.580069C0.498895 0.437245 0.498854 0.437173 0.498819 0.437113L0.499517 0.43832L0.50293 0.444165C0.506132 0.449619 0.511182 0.458147 0.518058 0.469546C0.531811 0.492348 0.552855 0.526614 0.581008 0.570706C0.637336 0.658924 0.72199 0.78627 0.833507 0.939693C1.05688 1.24701 1.38622 1.65642 1.80954 2.06499C2.6611 2.88686 3.8618 3.67618 5.32482 3.67618C6.79029 3.67618 7.99098 2.88679 8.84181 2.06506C9.26481 1.65653 9.59368 1.24716 9.81667 0.939873C9.92799 0.786467 10.0125 0.659136 10.0687 0.570932C10.0968 0.526847 10.1178 0.492589 10.1315 0.469794C10.1383 0.458398 10.1434 0.449873 10.1466 0.444422L10.15 0.438582L10.1507 0.437323ZM10.1505 4.54017L10.4 4.10204L10.65 4.53991L10.6507 4.54116L10.6541 4.54701C10.6573 4.55246 10.6623 4.56098 10.6692 4.57238C10.6829 4.59517 10.7039 4.62943 10.732 4.67352C10.7882 4.76172 10.8727 4.88905 10.984 5.04246C11.207 5.34974 11.5358 5.75911 11.9588 6.16764C12.8097 6.98937 14.0104 7.77876 15.4758 7.77876C16.9388 7.77876 18.1395 6.98945 18.9911 6.16757C19.4144 5.759 19.7438 5.34959 19.9671 5.04228C20.0787 4.88885 20.1633 4.76151 20.2196 4.67329C20.2478 4.6292 20.2688 4.59493 20.2826 4.57213C20.2895 4.56073 20.2945 4.5522 20.2977 4.54675L20.3011 4.5409L20.3018 4.53983L20.3846 4.39509H20.7614L20.8441 4.53991L20.8448 4.54116L20.8482 4.54701C20.8514 4.55246 20.8565 4.56098 20.8633 4.57238C20.877 4.59517 20.898 4.62943 20.9261 4.67352C20.9823 4.76172 21.0668 4.88905 21.1781 5.04246C21.4011 5.34974 21.73 5.75911 22.153 6.16764C23.0038 6.98937 24.2045 7.77876 25.67 7.77876C27.133 7.77876 28.3337 6.98945 29.1853 6.16757C29.6086 5.759 29.9379 5.34959 30.1613 5.04228C30.2728 4.88885 30.3575 4.76151 30.4138 4.67329C30.4419 4.6292 30.463 4.59493 30.4767 4.57213C30.4836 4.56073 30.4887 4.5522 30.4919 4.54675L30.4953 4.5409L30.4959 4.53976C30.4959 4.53982 30.4959 4.53983 30.7455 4.68265C30.9951 4.82548 30.995 4.82557 30.995 4.82569L30.9943 4.82678L30.9929 4.82931L30.9878 4.83797C30.9835 4.84532 30.9773 4.85579 30.9692 4.86918C30.9531 4.89594 30.9295 4.93437 30.8985 4.9828C30.8367 5.07963 30.7456 5.21663 30.6265 5.38043C30.3887 5.70755 30.0378 6.14405 29.5847 6.5814C28.6833 7.45136 27.3462 8.35389 25.67 8.35389C23.9914 8.35389 22.6544 7.45144 21.7534 6.58133C21.3006 6.14395 20.9501 5.7074 20.7127 5.38025C20.6606 5.30853 20.6139 5.24196 20.5727 5.18164C20.5314 5.242 20.4845 5.30864 20.4324 5.38043C20.1946 5.70755 19.8436 6.14405 19.3905 6.5814C18.4891 7.45136 17.1521 8.35389 15.4758 8.35389C13.7973 8.35389 12.4602 7.45144 11.5593 6.58133C11.1064 6.14395 10.7559 5.7074 10.5185 5.38025C10.4755 5.32103 10.4362 5.26531 10.4006 5.21373C10.3651 5.26525 10.3259 5.3209 10.2831 5.38003C10.0461 5.70721 9.69618 6.14378 9.24389 6.5812C8.34412 7.45138 7.00823 8.35389 5.32961 8.35389C3.65105 8.35389 2.31399 7.45144 1.41307 6.58133C0.960195 6.14395 0.60969 5.7074 0.372278 5.38025C0.253401 5.21643 0.162423 5.07941 0.100717 4.98257C0.0698529 4.93414 0.0462794 4.8957 0.030169 4.86893C0.0221128 4.85554 0.0159198 4.84507 0.0116116 4.83771L0.00656429 4.82905L0.00510512 4.82651L0.00464251 4.82571C0.00457889 4.8256 0.00435814 4.82521 0.254099 4.68265C0.50384 4.54009 0.503799 4.54002 0.503764 4.53996L0.504458 4.54116L0.50786 4.54701C0.511053 4.55246 0.516089 4.56098 0.522947 4.57238C0.536665 4.59517 0.557658 4.62943 0.585749 4.67352C0.641951 4.76172 0.726432 4.88905 0.837757 5.04246C1.06075 5.34974 1.38961 5.75911 1.81261 6.16764C2.66344 6.98937 3.86413 7.77876 5.32961 7.77876C6.79502 7.77876 7.99449 6.98943 8.84407 6.16778C9.26646 5.75928 9.59472 5.34993 9.81726 5.04267C9.92836 4.88928 10.0127 4.76196 10.0687 4.67376C10.0968 4.62968 10.1177 4.59543 10.1314 4.57263C10.1382 4.56124 10.1432 4.55272 10.1464 4.54727L10.1498 4.54143L10.1505 4.54017ZM10.1554 8.64264L10.4051 8.20455L10.6548 8.64264L10.6556 8.6439L10.659 8.64976C10.6609 8.653 10.6634 8.65734 10.6666 8.66272C10.6688 8.66639 10.6713 8.67054 10.6741 8.67517C10.6878 8.698 10.7088 8.73231 10.7369 8.77646C10.7931 8.8648 10.8776 8.99231 10.9889 9.14594C11.2119 9.45368 11.5408 9.86364 11.9638 10.2728C12.8147 11.0957 14.0153 11.8861 15.4806 11.8861C16.9435 11.8861 18.1441 11.0958 18.9958 10.2727C19.4191 9.86354 19.7484 9.45353 19.9718 9.14576C20.0833 8.99212 20.168 8.86458 20.2243 8.77623C20.2525 8.73207 20.2735 8.69776 20.2873 8.67492C20.2942 8.6635 20.2992 8.65496 20.3024 8.6495L20.3058 8.64364L20.3065 8.64256L20.3893 8.49767H20.7664L20.849 8.64264L20.8497 8.6439L20.8531 8.64976C20.8563 8.65521 20.8614 8.66375 20.8682 8.67517C20.8819 8.698 20.9029 8.73231 20.931 8.77646C20.9872 8.8648 21.0717 8.99231 21.183 9.14594C21.406 9.45368 21.7349 9.86364 22.1579 10.2728C23.0088 11.0957 24.2095 11.8861 25.6748 11.8861C27.1401 11.8861 28.3408 11.0957 29.1916 10.2728C29.6146 9.86364 29.9435 9.45368 30.1665 9.14594C30.2778 8.99231 30.3623 8.8648 30.4185 8.77646C30.4466 8.73231 30.4676 8.698 30.4813 8.67517C30.4882 8.66375 30.4932 8.65521 30.4964 8.64976L30.4998 8.6439L30.5005 8.64276C30.5005 8.64282 30.5005 8.64283 30.7503 8.78523C31.0001 8.92764 31.0001 8.92774 31 8.92785L30.9979 8.93148L30.9929 8.94016C30.9886 8.94752 30.9824 8.95801 30.9743 8.97141C30.9582 8.99822 30.9346 9.0367 30.9038 9.08521C30.8421 9.18218 30.7511 9.31938 30.6322 9.48342C30.3948 9.81103 30.0443 10.2482 29.5915 10.6862C28.6906 11.5575 27.3535 12.4613 25.6748 12.4613C23.9961 12.4613 22.659 11.5575 21.7581 10.6862C21.3052 10.2482 20.9547 9.81103 20.7173 9.48342C20.6653 9.41167 20.6187 9.34506 20.5775 9.2847C20.5362 9.3451 20.4894 9.41178 20.4373 9.4836C20.1995 9.81117 19.8486 10.2483 19.3954 10.6862C18.4941 11.5574 17.157 12.4613 15.4806 12.4613C13.8019 12.4613 12.4648 11.5575 11.5639 10.6862C11.1111 10.2482 10.7606 9.81103 10.5232 9.48342C10.4801 9.42404 10.4408 9.36817 10.4051 9.31645C10.3695 9.36817 10.3301 9.42404 10.2871 9.48342C10.0497 9.81103 9.69916 10.2482 9.24629 10.6862C8.34542 11.5575 7.00832 12.4613 5.32961 12.4613C3.6509 12.4613 2.31379 11.5575 1.41292 10.6862C0.96006 10.2482 0.609566 9.81103 0.372164 9.48342C0.253293 9.31938 0.16232 9.18218 0.100618 9.08521C0.0697561 9.0367 0.0461847 8.99822 0.0300763 8.97141C0.0220212 8.95801 0.0158292 8.94752 0.0115219 8.94016L0.00647608 8.93148L0.00501762 8.92894L0.00455535 8.92814C0.00449179 8.92803 0.00427133 8.92764 0.254099 8.78523C0.503927 8.64283 0.503886 8.64276 0.503851 8.6427L0.504546 8.6439L0.50795 8.64976C0.511143 8.65521 0.516181 8.66375 0.52304 8.67517C0.53676 8.698 0.557755 8.73231 0.585848 8.77646C0.642055 8.8648 0.726541 8.99231 0.83787 9.14594C1.06087 9.45368 1.38975 9.86364 1.81276 10.2728C2.66363 11.0957 3.86428 11.8861 5.32961 11.8861C6.79493 11.8861 7.99558 11.0957 8.84646 10.2728C9.26947 9.86364 9.59834 9.45368 9.82135 9.14594C9.93268 8.99231 10.0172 8.8648 10.0734 8.77646C10.1015 8.73231 10.1225 8.698 10.1362 8.67517C10.143 8.66375 10.1481 8.65521 10.1513 8.64976L10.1547 8.6439L10.1554 8.64264ZM10.1505 12.7407L10.4 12.3018L10.65 12.7404L10.6508 12.7417L10.6542 12.7475C10.6574 12.753 10.6624 12.7615 10.6693 12.773C10.683 12.7958 10.704 12.8301 10.7321 12.8743C10.7883 12.9626 10.8728 13.0901 10.9841 13.2437C11.2071 13.5515 11.536 13.9614 11.959 14.3706C12.8099 15.1935 14.0105 15.9839 15.4758 15.9839C16.9387 15.9839 18.1394 15.1936 18.991 14.3705C19.4143 13.9613 19.7436 13.5513 19.967 13.2436C20.0786 13.0899 20.1632 12.9624 20.2195 12.874C20.2477 12.8299 20.2687 12.7955 20.2825 12.7727C20.2894 12.7613 20.2944 12.7528 20.2976 12.7473L20.301 12.7414L20.3017 12.7404L20.3845 12.5955H20.7616L20.8442 12.7404L20.8449 12.7417L20.8483 12.7475C20.8515 12.753 20.8566 12.7615 20.8634 12.773C20.8771 12.7958 20.8981 12.8301 20.9262 12.8743C20.9824 12.9626 21.0669 13.0901 21.1782 13.2437C21.4012 13.5515 21.7301 13.9614 22.1531 14.3706C23.004 15.1935 24.2047 15.9839 25.67 15.9839C27.1329 15.9839 28.3335 15.1936 29.1851 14.3705C29.6084 13.9613 29.9378 13.5513 30.1612 13.2436C30.2727 13.0899 30.3574 12.9624 30.4137 12.874C30.4419 12.8299 30.4629 12.7955 30.4767 12.7727C30.4835 12.7613 30.4886 12.7528 30.4918 12.7473L30.4952 12.7414L30.4959 12.7403C30.4958 12.7403 30.4958 12.7404 30.7455 12.883C30.9952 13.0257 30.9951 13.0258 30.995 13.0259L30.9944 13.027L30.993 13.0295L30.9879 13.0382C30.9836 13.0456 30.9774 13.056 30.9693 13.0694C30.9532 13.0962 30.9296 13.1347 30.8986 13.1832C30.8368 13.2802 30.7457 13.4174 30.6266 13.5814C30.3889 13.909 30.0379 14.3461 29.5848 14.784C28.6835 15.6552 27.3464 16.5591 25.67 16.5591C23.9913 16.5591 22.6542 15.6553 21.7533 14.784C21.3004 14.346 20.9499 13.9088 20.7125 13.5812C20.6605 13.5095 20.6139 13.4428 20.5727 13.3825C20.5314 13.4429 20.4846 13.5096 20.4325 13.5814C20.1947 13.909 19.8438 14.3461 19.3906 14.784C18.4893 15.6552 17.1522 16.5591 15.4758 16.5591C13.7971 16.5591 12.46 15.6553 11.5591 14.784C11.1063 14.346 10.7558 13.9088 10.5184 13.5812C10.4755 13.522 10.4362 13.4662 10.4006 13.4146C10.3651 13.4662 10.3259 13.5218 10.2832 13.581C10.0462 13.9086 9.69631 14.3458 9.24404 14.7838C8.34432 15.6552 7.00838 16.5591 5.32961 16.5591C3.6509 16.5591 2.31379 15.6553 1.41292 14.784C0.96006 14.346 0.609566 13.9088 0.372164 13.5812C0.253293 13.4172 0.16232 13.28 0.100618 13.183C0.0697561 13.1345 0.0461846 13.096 0.0300763 13.0692C0.0220212 13.0558 0.0158291 13.0453 0.0115219 13.0379L0.00647605 13.0293L0.0050176 13.0267L0.00455533 13.0259C0.00449179 13.0258 0.0042713 13.0254 0.254099 12.883C0.503927 12.7406 0.503886 12.7405 0.503851 12.7405L0.504546 12.7417L0.50795 12.7475C0.511143 12.753 0.516181 12.7615 0.52304 12.773C0.53676 12.7958 0.557755 12.8301 0.585848 12.8743C0.642055 12.9626 0.726541 13.0901 0.83787 13.2437C1.06087 13.5515 1.38975 13.9614 1.81276 14.3706C2.66363 15.1935 3.86428 15.9839 5.32961 15.9839C6.79487 15.9839 7.99429 15.1936 8.84392 14.3707C9.26632 13.9616 9.59459 13.5517 9.81715 13.2439C9.92825 13.0903 10.0125 12.9628 10.0686 12.8745C10.0967 12.8303 10.1176 12.796 10.1313 12.7732C10.1347 12.7675 10.1377 12.7626 10.1402 12.7583C10.1427 12.7541 10.1447 12.7505 10.1463 12.7478L10.1497 12.742L10.1505 12.7407Z" fill="#A7884C"/>
</svg>
