<svg width="20" height="30" viewBox="0 0 20 30" fill="none" xmlns="http://www.w3.org/2000/svg">
<path fill-rule="evenodd" clip-rule="evenodd" d="M10.0369 30V2.51154H10.2133V30H10.0369Z" fill="#A7884C"/>
<path fill-rule="evenodd" clip-rule="evenodd" d="M7.70183 0.176453C6.41245 0.176453 5.36676 1.22214 5.36676 2.51152H5.19031C5.19031 1.12469 6.315 0 7.70183 0C9.08866 0 10.2133 1.12469 10.2133 2.51152H10.0369C10.0369 1.22214 8.9912 0.176453 7.70183 0.176453Z" fill="#A7884C"/>
<path fill-rule="evenodd" clip-rule="evenodd" d="M12.5484 0.176453C11.259 0.176453 10.2133 1.22214 10.2133 2.51152H10.0369C10.0369 1.12469 11.1616 0 12.5484 0C13.9352 0 15.0599 1.12469 15.0599 2.51152H14.8835C14.8835 1.22214 13.8378 0.176453 12.5484 0.176453Z" fill="#A7884C"/>
<path fill-rule="evenodd" clip-rule="evenodd" d="M13.9012 13.4663C11.8649 13.4663 10.2133 15.1178 10.2133 17.1542H10.0369C10.0369 15.0204 11.7674 13.2899 13.9012 13.2899C16.035 13.2899 17.7655 15.0204 17.7655 17.1542H17.5891C17.5891 15.1178 15.9376 13.4663 13.9012 13.4663Z" fill="#A7884C"/>
<path fill-rule="evenodd" clip-rule="evenodd" d="M6.34901 13.4663C4.31264 13.4663 2.66113 15.1178 2.66113 17.1542H2.48468C2.48468 15.0204 4.21519 13.2899 6.34901 13.2899C8.48282 13.2899 10.2133 15.0204 10.2133 17.1542H10.0369C10.0369 15.1178 8.38537 13.4663 6.34901 13.4663Z" fill="#A7884C"/>
<path d="M16.923 19.0599C17.2068 19.0599 17.2068 18.6188 16.923 18.6188C16.6392 18.6188 16.6377 19.0599 16.923 19.0599Z" fill="#A7884C"/>
<path d="M19.4095 16.5719C19.6933 16.5719 19.6933 16.1308 19.4095 16.1308C19.1257 16.1308 19.1257 16.5719 19.4095 16.5719Z" fill="#A7884C"/>
<path d="M15.8378 16.9542C16.1216 16.9542 16.1216 16.5131 15.8378 16.5131C15.554 16.5131 15.554 16.9542 15.8378 16.9542Z" fill="#A7884C"/>
<path d="M12.9043 2.79679C13.188 2.79679 13.188 2.35565 12.9043 2.35565C12.6205 2.35565 12.6205 2.79679 12.9043 2.79679Z" fill="#A7884C"/>
<path d="M16.2848 1.64838C16.5686 1.64838 16.5686 1.20724 16.2848 1.20724C16.001 1.20724 16.001 1.64838 16.2848 1.64838Z" fill="#A7884C"/>
<path d="M3.97573 1.64838C4.25952 1.64838 4.25952 1.20724 3.97573 1.20724C3.69193 1.20724 3.69193 1.64838 3.97573 1.64838Z" fill="#A7884C"/>
<path d="M5.95345 4.901C6.23725 4.901 6.23725 4.45987 5.95345 4.45987C5.66819 4.45987 5.66819 4.901 5.95345 4.901Z" fill="#A7884C"/>
<path d="M6.90926 2.98795C7.19305 2.98795 7.19305 2.54681 6.90926 2.54681C6.62546 2.54681 6.62546 2.98795 6.90926 2.98795Z" fill="#A7884C"/>
<path d="M1.36126 15.9352C1.64505 15.9352 1.64505 15.4941 1.36126 15.4941C1.07746 15.4941 1.07599 15.9352 1.36126 15.9352Z" fill="#A7884C"/>
<path d="M0.212847 18.3585C0.496642 18.3585 0.496642 17.9174 0.212847 17.9174C-0.0709489 17.9174 -0.0709489 18.3585 0.212847 18.3585Z" fill="#A7884C"/>
<path d="M4.48595 17.4012C4.76974 17.4012 4.76974 16.9601 4.48595 16.9601C4.20215 16.9601 4.20215 17.4012 4.48595 17.4012Z" fill="#A7884C"/>
</svg>
