<svg width="31" height="21" viewBox="0 0 31 21" fill="none" xmlns="http://www.w3.org/2000/svg">
<path fill-rule="evenodd" clip-rule="evenodd" d="M0 6.27699C3.97939 2.39883 9.41536 0 15.402 0C21.4835 0 27.0016 2.47475 31 6.46679L30.4726 6.99506C26.6078 3.13643 21.2769 0.746498 15.402 0.746498C9.61879 0.746498 4.36741 3.06305 0.52101 6.8116L0 6.27699ZM6.30449 12.9677C8.63582 10.6364 11.8524 9.19437 15.402 9.19437C18.9515 9.19437 22.1681 10.6364 24.4995 12.9677L23.9716 13.4956C21.7742 11.2982 18.7451 9.94086 15.402 9.94086C12.0589 9.94086 9.02976 11.2982 6.83234 13.4956L6.30449 12.9677ZM12.8052 19.4747C13.4688 18.8111 14.3898 18.395 15.402 18.395C16.4208 18.395 17.3354 18.8114 17.9987 19.4747L17.4708 20.0026C16.9398 19.4715 16.2121 19.1415 15.402 19.1415C14.5977 19.1415 13.8639 19.4718 13.3331 20.0026L12.8052 19.4747Z" fill="#A7884C"/>
</svg>
